<?xml version="1.0" encoding="UTF-8"?>
<svg version="1.1" xmlns="http://www.w3.org/2000/svg" width="500" height="154">
<path d="M0 0 C15.84 0 31.68 0 48 0 C46.85950413 15.96694215 46.85950413 15.96694215 46 23.125 C45.17437858 30.07828037 44.58224589 37.0130493 44 44 C53.24 44 62.48 44 72 44 C72.31720888 38.76605353 72.62483312 33.53623672 72.88427734 28.29980469 C72.98302125 26.3374258 73.09378012 24.37565762 73.20703125 22.4140625 C73.43472486 15.8531134 72.55993284 11.52491369 69 6 C68.13375 4.515 68.13375 4.515 67.25 3 C66.8375 2.34 66.425 1.68 66 1 C67 0 67 0 69.05641174 -0.12025452 C70.41209511 -0.1169236 70.41209511 -0.1169236 71.79516602 -0.11352539 C72.81614883 -0.11344986 73.83713165 -0.11337433 74.88905334 -0.11329651 C75.9994548 -0.10813522 77.10985626 -0.10297394 78.25390625 -0.09765625 C79.94978127 -0.09553383 79.94978127 -0.09553383 81.67991638 -0.09336853 C85.30747065 -0.08775019 88.93496424 -0.07519458 92.5625 -0.0625 C95.01497307 -0.05748736 97.4674471 -0.05292405 99.91992188 -0.04882812 C105.94663545 -0.0377748 111.97331339 -0.02101884 118 0 C116.45972072 3.19717011 114.6649381 5.80874578 112.5 8.625 C108.92521369 13.66085043 107.69501659 17.94208515 107 24 C106.83242187 25.05832031 106.66484375 26.11664063 106.4921875 27.20703125 C105.91693333 31.64014079 105.69037901 36.03666994 105.5 40.5 C105.31379286 44.86552286 105.12130318 49.16028107 104.49609375 53.48828125 C103.87447482 57.88856014 103.72747346 62.25051555 103.5625 66.6875 C103.23975589 74.27442627 102.55873778 81.55437876 101 89 C101.66 89 102.32 89 103 89 C103 89.66 103 90.32 103 91 C102.34 91 101.68 91 101 91 C100.31925575 104.62887989 100.31925575 104.62887989 105.5625 116.625 C106.70598863 117.75238316 107.85111717 118.87811441 109 120 C109 120.66 109 121.32 109 122 C109.66 122 110.32 122 111 122 C110.505 123.485 110.505 123.485 110 125 C102.18547248 125.02526563 94.37095542 125.04283105 86.55639648 125.05493164 C83.89558519 125.05997383 81.23477668 125.06680736 78.57397461 125.07543945 C74.75894484 125.08751009 70.94395156 125.09322929 67.12890625 125.09765625 C65.93100967 125.10281754 64.7331131 125.10797882 63.49891663 125.11329651 C61.84731789 125.11340981 61.84731789 125.11340981 60.16235352 125.11352539 C59.18750504 125.115746 58.21265656 125.11796661 57.20826721 125.12025452 C55 125 55 125 54 124 C53.6328125 121.7109375 53.6328125 121.7109375 54 119 C56.35721612 116.5384053 58.93654741 114.57677909 61.6171875 112.4765625 C69.78611195 103.98623775 68.34022337 83.43612827 69 72 C60.09 72 51.18 72 42 72 C39.89313777 82.53431113 39.84313996 93.28639579 39.6875 104 C39.657771 105.08635742 39.62804199 106.17271484 39.59741211 107.29199219 C39.55081176 113.61198114 39.92677818 117.1153474 44 122 C44 122.66 44 123.32 44 124 C41.00372383 124.86774887 38.34640117 125.12189893 35.23144531 125.11352539 C34.29077209 125.11344986 33.35009888 125.11337433 32.38092041 125.11329651 C31.37349792 125.10813522 30.36607544 125.10297394 29.328125 125.09765625 C28.29057068 125.0962413 27.25301636 125.09482635 26.184021 125.09336853 C22.87265124 125.08777447 19.56134929 125.07522303 16.25 125.0625 C14.00390723 125.05748423 11.75781339 125.05292146 9.51171875 125.04882812 C4.0077894 125.03780699 -1.49610046 125.02107474 -7 125 C-5.00310101 120.75990309 -2.2162882 118.05998667 1.125 114.8046875 C6.0489272 107.43931306 5.53249121 96.8715778 6.0703125 88.3046875 C6.15626678 86.99960236 6.24222107 85.69451721 6.33078003 84.34988403 C6.5115794 81.59175676 6.6874604 78.83337145 6.85986328 76.07470703 C7.03365625 73.29949592 7.21386803 70.52483994 7.40087891 67.75048828 C8.32641593 54.01571735 9.17014224 40.27555993 9.3671875 26.5078125 C9.39362335 25.55292938 9.4200592 24.59804626 9.44729614 23.61422729 C9.47913353 14.30562535 5.88560989 8.86654488 0 2 C0 1.34 0 0.68 0 0 Z " fill="#17374C" transform="translate(39,19)"/>
<path d="M0 0 C4.62 0 9.24 0 14 0 C16.33333333 9.33333333 18.66666667 18.66666667 21 28 C21.32613281 26.80503906 21.65226562 25.61007813 21.98828125 24.37890625 C28.17602097 1.82397903 28.17602097 1.82397903 30 0 C31.68608966 -0.07205511 33.37500659 -0.08386068 35.0625 -0.0625 C35.98160156 -0.05347656 36.90070313 -0.04445312 37.84765625 -0.03515625 C38.55792969 -0.02355469 39.26820313 -0.01195312 40 0 C41.86268078 4.27913152 43.01448954 8.60892415 44.125 13.125 C44.30675781 13.84042969 44.48851562 14.55585937 44.67578125 15.29296875 C45.41575929 18.26957214 46 20.92071083 46 24 C46.66 24 47.32 24 48 24 C47.67 25.32 47.34 26.64 47 28 C49.28902565 27.14954038 49.28902565 27.14954038 49.86962891 24.40795898 C50.15241699 23.28204346 50.43520508 22.15612793 50.7265625 20.99609375 C51.0359375 19.78115234 51.3453125 18.56621094 51.6640625 17.31445312 C52.13972656 15.39536133 52.13972656 15.39536133 52.625 13.4375 C52.95237857 12.14108732 53.28049428 10.84486055 53.609375 9.54882812 C54.41352256 6.36771499 55.207687 3.18408137 56 0 C60.29 0 64.58 0 69 0 C68.41218148 6.65410564 66.72862764 12.59269403 64.6875 18.9375 C62.20355288 26.82042393 59.96151031 34.66522832 58.33081055 42.77124023 C57.54300389 46.48545465 56.83381265 49.3741736 54 52 C51.625 52.56640625 51.625 52.56640625 49 52.5625 C48.13375 52.58441406 47.2675 52.60632813 46.375 52.62890625 C44 52 44 52 42.34765625 50.0390625 C40.58228476 46.05802186 39.50370515 42.02686926 38.4375 37.8125 C38.0257851 36.19240826 37.60808462 34.57382249 37.18359375 32.95703125 C37.00368896 32.24522705 36.82378418 31.53342285 36.63842773 30.80004883 C36.06750864 28.78079737 36.06750864 28.78079737 34 27 C34 27.99 34 28.98 34 30 C33.34 30 32.68 30 32 30 C31.896875 31.258125 31.79375 32.51625 31.6875 33.8125 C31.0634085 39.27330064 30.23527665 44.95120912 28 50 C24.78777636 52.15910965 22.51984404 52.12103211 18.75 51.625 C17.85796875 51.51414063 16.9659375 51.40328125 16.046875 51.2890625 C15.37140625 51.19367188 14.6959375 51.09828125 14 51 C13.74307373 50.09290283 13.74307373 50.09290283 13.48095703 49.16748047 C12.69705513 46.40291624 11.91104554 43.63895546 11.125 40.875 C10.85558594 39.92367187 10.58617187 38.97234375 10.30859375 37.9921875 C8.96933135 33.28843662 7.55214146 28.63823523 6 24 C4.92866753 20.44595507 3.8999362 16.8801607 2.875 13.3125 C2.59785156 12.36310547 2.32070312 11.41371094 2.03515625 10.43554688 C1.77347656 9.52482422 1.51179687 8.61410156 1.2421875 7.67578125 C1.0035498 6.84989502 0.76491211 6.02400879 0.51904297 5.1730957 C0 3 0 3 0 0 Z " fill="#21272A" transform="translate(246,57)"/>
<path d="M0 0 C3.09244792 0.03255208 6.18489583 0.06510417 9.27734375 0.09765625 C9.60734375 6.36765625 9.93734375 12.63765625 10.27734375 19.09765625 C15.55734375 19.09765625 20.83734375 19.09765625 26.27734375 19.09765625 C26.27734375 12.82765625 26.27734375 6.55765625 26.27734375 0.09765625 C30.56734375 0.09765625 34.85734375 0.09765625 39.27734375 0.09765625 C39.30198488 7.34252674 39.32017555 14.58737307 39.33227539 21.83227539 C39.33731731 24.29907658 39.34415066 26.76587477 39.3527832 29.23266602 C39.364855 32.76970154 39.37057331 36.3066977 39.375 39.84375 C39.38016129 40.95415146 39.38532257 42.06455292 39.39064026 43.20860291 C39.39071579 44.22958572 39.39079132 45.25056854 39.39086914 46.30249023 C39.39308975 47.20627914 39.39531036 48.11006805 39.39759827 49.04124451 C39.27734375 51.09765625 39.27734375 51.09765625 38.27734375 52.09765625 C36.44618492 52.19616796 34.61114442 52.22738254 32.77734375 52.22265625 C31.77703125 52.22523437 30.77671875 52.2278125 29.74609375 52.23046875 C27.27734375 52.09765625 27.27734375 52.09765625 26.27734375 51.09765625 C26.19082764 49.68195502 26.17029471 48.26206125 26.1796875 46.84375 C26.18291016 45.98974609 26.18613281 45.13574219 26.18945312 44.25585938 C26.19783203 43.35802734 26.20621094 42.46019531 26.21484375 41.53515625 C26.21935547 40.63345703 26.22386719 39.73175781 26.22851562 38.80273438 C26.24034131 36.56768036 26.25827737 34.33266023 26.27734375 32.09765625 C20.66734375 32.09765625 15.05734375 32.09765625 9.27734375 32.09765625 C9.27734375 38.36765625 9.27734375 44.63765625 9.27734375 51.09765625 C5.31734375 51.09765625 1.35734375 51.09765625 -2.72265625 51.09765625 C-3.92782312 48.68732251 -3.84951731 47.17184215 -3.85205078 44.48022461 C-3.85520294 43.52260727 -3.8583551 42.56498993 -3.86160278 41.57835388 C-3.85957855 40.5418721 -3.85755432 39.50539032 -3.85546875 38.4375 C-3.85642548 37.37729141 -3.8573822 36.31708282 -3.85836792 35.2247467 C-3.8590492 32.98112936 -3.85719852 30.73751005 -3.85302734 28.49389648 C-3.84767311 25.04601653 -3.85297683 21.59826654 -3.859375 18.15039062 C-3.85871431 15.97526013 -3.85743335 13.80012971 -3.85546875 11.625 C-3.85749298 10.58649399 -3.85951721 9.54798798 -3.86160278 8.47801208 C-3.85845062 7.52354691 -3.85529846 6.56908173 -3.85205078 5.58569336 C-3.85125519 4.74123154 -3.85045959 3.89676971 -3.84963989 3.02671814 C-3.64657739 -0.05808962 -3.12084271 0.1119384 0 0 Z " fill="#2F3437" transform="translate(161.72265625,56.90234375)"/>
<path d="M0 0 C4.54144994 -0.11647041 9.08251394 -0.18734502 13.625 -0.25 C15.55279297 -0.30027344 15.55279297 -0.30027344 17.51953125 -0.3515625 C29.30264928 -0.47366735 29.30264928 -0.47366735 34 4 C37.31475998 7.65766619 37.88447327 10.46927089 38.25 15.3125 C37.90455453 20.40782067 36.28508606 24.28087825 33.23046875 28.3671875 C31.64323899 30.97397837 31.64323899 30.97397837 32.9140625 33.71875 C33.47867188 34.6365625 34.04328125 35.554375 34.625 36.5 C35.17414063 37.4178125 35.72328125 38.335625 36.2890625 39.28125 C37.42031158 41.07885128 38.56081205 42.8706671 39.7109375 44.65625 C41 47 41 47 41 50 C39.2300132 50.19532961 37.45895721 50.38098882 35.6875 50.5625 C34.20830078 50.71912109 34.20830078 50.71912109 32.69921875 50.87890625 C30 51 30 51 27 50 C25.83325195 48.32592773 25.83325195 48.32592773 24.73828125 46.18359375 C24.34189453 45.41982422 23.94550781 44.65605469 23.53710938 43.86914062 C23.13298828 43.06669922 22.72886719 42.26425781 22.3125 41.4375 C21.89677734 40.63119141 21.48105469 39.82488281 21.05273438 38.99414062 C20.02636638 37.0003913 19.00928802 35.00243503 18 33 C15.03 33.495 15.03 33.495 12 34 C12 39.28 12 44.56 12 50 C8.04597945 50.79080411 4.96646209 51.18029373 1 51 C0 50 0 50 -0.12025452 47.98155212 C-0.11803391 47.09552811 -0.11581329 46.20950409 -0.11352539 45.29663086 C-0.11344986 44.29566879 -0.11337433 43.29470673 -0.11329651 42.26341248 C-0.10813522 41.1748848 -0.10297394 40.08635712 -0.09765625 38.96484375 C-0.0962413 37.85645645 -0.09482635 36.74806915 -0.09336853 35.60609436 C-0.08775033 32.04986931 -0.07519475 28.49370617 -0.0625 24.9375 C-0.05748734 22.53320403 -0.05292403 20.12890708 -0.04882812 17.72460938 C-0.03777499 11.81638496 -0.02101917 5.9081969 0 0 Z M12 12 C12 14.64 12 17.28 12 20 C15.74947319 21.2498244 19.07945533 21.58685908 23 21 C25.21750908 19.4607536 25.21750908 19.4607536 26 17 C25.76554071 13.67649546 25.76554071 13.67649546 24 11 C22.35659133 10.90145345 20.7088539 10.87027589 19.0625 10.875 C18.16660156 10.87242188 17.27070313 10.86984375 16.34765625 10.8671875 C13.97844445 10.84578587 13.97844445 10.84578587 12 12 Z " fill="#21272A" transform="translate(363,58)"/>
<path d="M0 0 C4.62 0 9.24 0 14 0 C19 8.75 19 8.75 19 11 C20.9254644 12.1490712 20.9254644 12.1490712 23 12 C23.93620961 10.00907324 24.84871745 8.00697971 25.75 6 C27.58203125 2.671875 27.58203125 2.671875 30 0 C34.81087914 -1.07258945 39.15098175 -0.72634393 44 0 C43.18174726 3.65433265 41.73565302 6.6796203 40 10 C39.34 10 38.68 10 38 10 C37.89816406 10.54527344 37.79632813 11.09054688 37.69140625 11.65234375 C36.53768076 15.56979582 34.30841551 18.91928887 32.27734375 22.44140625 C30.77666643 24.9707298 30.77666643 24.9707298 31 28 C31.66 28 32.32 28 33 28 C33 28.99 33 29.98 33 31 C33.66 31.33 34.32 31.66 35 32 C36.17573069 33.6738235 37.29216807 35.3896318 38.375 37.125 C38.99246094 38.11371094 39.60992187 39.10242188 40.24609375 40.12109375 C42.23185716 43.38057623 44.14653697 46.66376654 46 50 C43.715169 52.284831 39.07422343 51.92897834 36 52 C32.4375 51.0625 32.4375 51.0625 30 50 C30 49.01 30 48.02 30 47 C29.34 47 28.68 47 28 47 C26.4921875 44.8125 26.4921875 44.8125 24.875 42 C24.33617187 41.071875 23.79734375 40.14375 23.2421875 39.1875 C22.83226562 38.465625 22.42234375 37.74375 22 37 C20.87162591 38.58093054 19.74743482 40.16484716 18.625 41.75 C17.99851562 42.63171875 17.37203125 43.5134375 16.7265625 44.421875 C14.9489292 46.84818241 14.9489292 46.84818241 14.1875 49.28125 C13 51 13 51 9.9609375 51.609375 C8.77757812 51.65578125 7.59421875 51.7021875 6.375 51.75 C4.59222656 51.83507812 4.59222656 51.83507812 2.7734375 51.921875 C1.85820312 51.94765625 0.94296875 51.9734375 0 52 C-0.65234375 50.24609375 -0.65234375 50.24609375 -1 48 C-0.06640625 46.09765625 -0.06640625 46.09765625 1.4375 44.0625 C1.97890625 43.27875 2.5203125 42.495 3.078125 41.6875 C4.47785809 39.73014966 5.90943279 37.79545325 7.359375 35.875 C11.70506661 30.1971324 11.70506661 30.1971324 12.67578125 23.4375 C11.34228429 20.74392475 9.74958672 18.44516278 8 16 C6.89108608 14.15556627 5.82730963 12.2899512 4.76953125 10.41577148 C4.0558444 9.15216574 3.33077118 7.89491466 2.59375 6.64477539 C0 2.22186022 0 2.22186022 0 0 Z " fill="#1E2528" transform="translate(425,57)"/>
<path d="M0 0 C3.63 0 7.26 0 11 0 C11.33 5.94 11.66 11.88 12 18 C13.670625 15.7725 13.670625 15.7725 15.375 13.5 C17.2734375 10.96875 17.2734375 10.96875 19 9 C19.66 9 20.32 9 21 9 C21.309375 8.38125 21.61875 7.7625 21.9375 7.125 C22.625 5.75 23.3125 4.375 24 3 C24.66 3 25.32 3 26 3 C26.33 2.01 26.66 1.02 27 0 C31.62 0 36.24 0 41 0 C40.67 1.32 40.34 2.64 40 4 C39.34 4 38.68 4 38 4 C38 4.66 38 5.32 38 6 C37.34 6 36.68 6 36 6 C35.75378906 6.73089844 35.50757813 7.46179688 35.25390625 8.21484375 C33.48449555 12.14503014 30.73313553 14.73233417 27.77734375 17.81640625 C25.97342829 20.03264525 25.14563493 21.1601188 25 24 C25.9575503 26.13379169 25.9575503 26.13379169 27.4375 28.125 C30 31.82561308 30 31.82561308 30 34 C30.66 34 31.32 34 32 34 C32 34.99 32 35.98 32 37 C32.66 37 33.32 37 34 37 C35.5078125 38.8984375 35.5078125 38.8984375 37.125 41.375 C37.66382813 42.18710938 38.20265625 42.99921875 38.7578125 43.8359375 C40 46 40 46 40 48 C40.99 48.33 41.98 48.66 43 49 C42.505 49.99 42.505 49.99 42 51 C36.81819699 51.66022973 32.15994523 51.96815467 27 51 C23.60129157 47.79927459 22.00319557 44.15789332 20 40 C18.67219754 38.32892365 17.33997114 36.66133467 16 35 C16 34.34 16 33.68 16 33 C12.88214887 33.64644661 12.88214887 33.64644661 12 36 C11.7677354 38.71262116 11.58063765 41.40773126 11.4375 44.125 C11.39431641 44.87910156 11.35113281 45.63320312 11.30664062 46.41015625 C11.2005168 48.27321888 11.09974999 50.13658524 11 52 C9.56344146 52.08131463 8.1255517 52.13933559 6.6875 52.1875 C5.48673828 52.23970703 5.48673828 52.23970703 4.26171875 52.29296875 C2 52 2 52 0.37419128 50.78410339 C-1.43687718 48.43280526 -1.3320876 47.10746135 -1.2487793 44.16137695 C-1.22853195 43.1805867 -1.20828461 42.19979645 -1.18742371 41.18928528 C-1.15006607 40.13295395 -1.11270844 39.07662262 -1.07421875 37.98828125 C-1.04777786 36.90491989 -1.02133698 35.82155853 -0.99409485 34.70536804 C-0.9062293 31.2405246 -0.79711346 27.77671708 -0.6875 24.3125 C-0.62425205 21.96553208 -0.56238565 19.61852648 -0.50195312 17.27148438 C-0.35067122 11.51376312 -0.18032693 5.75688185 0 0 Z " fill="#20272A" transform="translate(319,57)"/>
<path d="M0 0 C1.79244141 0.01740234 1.79244141 0.01740234 3.62109375 0.03515625 C5.41740234 0.04869141 5.41740234 0.04869141 7.25 0.0625 C8.17683594 0.07410156 9.10367188 0.08570313 10.05859375 0.09765625 C13.20811616 7.77731364 16.10333537 15.54441518 18.95019531 23.33984375 C19.68764257 25.35874063 20.42763792 27.37669022 21.16796875 29.39453125 C27.33730745 46.24466864 27.33730745 46.24466864 27.05859375 52.09765625 C25.12023409 52.03755207 23.18274884 51.94873908 21.24609375 51.84765625 C20.16714844 51.80125 19.08820313 51.75484375 17.9765625 51.70703125 C15.05859375 51.09765625 15.05859375 51.09765625 13.234375 49.48828125 C12.05859375 47.09765625 12.05859375 47.09765625 11.05859375 40.09765625 C5.77859375 40.09765625 0.49859375 40.09765625 -4.94140625 40.09765625 C-5.23015625 41.33515625 -5.51890625 42.57265625 -5.81640625 43.84765625 C-6.51697961 46.85011352 -7.48371275 49.37826166 -8.94140625 52.09765625 C-10.37880138 52.12477691 -11.81634488 52.14410692 -13.25390625 52.16015625 C-14.05441406 52.17175781 -14.85492188 52.18335938 -15.6796875 52.1953125 C-17.94140625 52.09765625 -17.94140625 52.09765625 -20.94140625 51.09765625 C-20.4909106 46.68279892 -19.58224128 43.14521816 -17.79077148 39.10327148 C-16.20625594 35.36173793 -14.94546015 31.50227582 -13.62890625 27.66015625 C-11.33927911 21.05215728 -9.01169115 14.46231408 -6.56640625 7.91015625 C-6.19068481 6.89514038 -6.19068481 6.89514038 -5.80737305 5.85961914 C-3.65049506 0.12119838 -3.65049506 0.12119838 0 0 Z M3.05859375 15.09765625 C2.22335289 17.40948363 1.39031789 19.72206399 0.55859375 22.03515625 C0.32011719 22.69451172 0.08164063 23.35386719 -0.1640625 24.03320312 C-1.40760619 26.9927656 -1.40760619 26.9927656 -1.94140625 30.09765625 C1.35859375 30.09765625 4.65859375 30.09765625 8.05859375 30.09765625 C7.40587819 26.58059667 6.54466351 23.20440548 5.49609375 19.78515625 C5.22667969 18.90214844 4.95726562 18.01914063 4.6796875 17.109375 C4.47472656 16.44550781 4.26976562 15.78164062 4.05859375 15.09765625 C3.72859375 15.09765625 3.39859375 15.09765625 3.05859375 15.09765625 Z " fill="#131A1E" transform="translate(224.94140625,56.90234375)"/>
<path d="M0 0 C3.63 0 7.26 0 11 0 C11 16.83 11 33.66 11 51 C7.37 51 3.74 51 0 51 C-1.54950268 49.45049732 -1.21655193 47.90009406 -1.31640625 45.74609375 C-1.35830078 44.89208984 -1.40019531 44.03808594 -1.44335938 43.15820312 C-1.48267578 42.26037109 -1.52199219 41.36253906 -1.5625 40.4375 C-1.60568359 39.53580078 -1.64886719 38.63410156 -1.69335938 37.70507812 C-1.79977984 35.47024844 -1.90042481 33.23514514 -2 31 C-4.97 30.67 -7.94 30.34 -11 30 C-11.103125 29.21625 -11.20625 28.4325 -11.3125 27.625 C-11.77595022 24.66954819 -11.77595022 24.66954819 -15 23 C-15 22.34 -15 21.68 -15 21 C-15.99 20.67 -16.98 20.34 -18 20 C-12.06 20 -6.12 20 0 20 C0 13.4 0 6.8 0 0 Z " fill="#161C20" transform="translate(189,58)"/>
<path d="M0 0 C4.42117715 1.35091524 6.443343 3.1650145 9 7 C10.93080179 11.82700448 10.4220431 16.83435716 8.6875 21.625 C7 25 7 25 5.23046875 27.3671875 C3.64323899 29.97397837 3.64323899 29.97397837 4.9140625 32.71875 C5.47867187 33.6365625 6.04328125 34.554375 6.625 35.5 C7.17414063 36.4178125 7.72328125 37.335625 8.2890625 38.28125 C9.42031158 40.07885128 10.56081205 41.8706671 11.7109375 43.65625 C13 46 13 46 13 49 C11.2300132 49.19532961 9.45895721 49.38098882 7.6875 49.5625 C6.20830078 49.71912109 6.20830078 49.71912109 4.69921875 49.87890625 C2 50 2 50 -1 49 C-2.7519108 46.41330449 -3.94575534 43.52190314 -5.25 40.6875 C-5.62640625 39.91470703 -6.0028125 39.14191406 -6.390625 38.34570312 C-6.74125 37.59611328 -7.091875 36.84652344 -7.453125 36.07421875 C-7.77442383 35.38932373 -8.09572266 34.70442871 -8.42675781 33.9987793 C-9.11438757 31.60115373 -8.69984218 30.35671555 -8 28 C-8.38567131 25.31850007 -8.38567131 25.31850007 -9 23 C-11.64 22.34 -14.28 21.68 -17 21 C-17 17.04 -17 13.08 -17 9 C-10.565 8.505 -10.565 8.505 -4 8 C-3.67 6.68 -3.34 5.36 -3 4 C-1.68 4 -0.36 4 1 4 C1.66 3.67 2.32 3.34 3 3 C2.01 2.67 1.02 2.34 0 2 C0 1.34 0 0.68 0 0 Z M-16 11 C-16 13.64 -16 16.28 -16 19 C-12.25052681 20.2498244 -8.92054467 20.58685908 -5 20 C-2.78249092 18.4607536 -2.78249092 18.4607536 -2 16 C-2.23445929 12.67649546 -2.23445929 12.67649546 -4 10 C-5.64340867 9.90145345 -7.2911461 9.87027589 -8.9375 9.875 C-9.83339844 9.87242188 -10.72929687 9.86984375 -11.65234375 9.8671875 C-14.02155555 9.84578587 -14.02155555 9.84578587 -16 11 Z " fill="#21282B" transform="translate(391,59)"/>
<path d="M0 0 C3.96 0 7.92 0 12 0 C12.81110904 3.24443616 13.12246345 5.42330595 13.11352539 8.67675781 C13.11344986 9.59741028 13.11337433 10.51806274 13.11329651 11.46661377 C13.10813522 12.45216248 13.10297394 13.43771118 13.09765625 14.453125 C13.0962413 15.46848328 13.09482635 16.48384155 13.09336853 17.52996826 C13.08777516 20.77000892 13.07522385 24.00998025 13.0625 27.25 C13.05748414 29.44791567 13.05292139 31.64583242 13.04882812 33.84375 C13.0378079 39.22919029 13.02107633 44.61459019 13 50 C8.67045918 52.28385682 5.88203398 52.24010003 1 52 C0 51 0 51 -0.12025452 48.94358826 C-0.11803391 48.03979935 -0.11581329 47.13601044 -0.11352539 46.20483398 C-0.11344986 45.18385117 -0.11337433 44.16286835 -0.11329651 43.11094666 C-0.10813522 42.0005452 -0.10297394 40.89014374 -0.09765625 39.74609375 C-0.0962413 38.61551041 -0.09482635 37.48492706 -0.09336853 36.32008362 C-0.08775019 32.69252935 -0.07519458 29.06503576 -0.0625 25.4375 C-0.05748736 22.98502693 -0.05292405 20.5325529 -0.04882812 18.08007812 C-0.0377748 12.05336187 -0.02049788 6.02669124 0 0 Z " fill="#23282C" transform="translate(408,57)"/>
<path d="M0 0 C3.3 0 6.6 0 10 0 C10 6.6 10 13.2 10 20 C10.66 20.33 11.32 20.66 12 21 C12 22.32 12 23.64 12 25 C13.91666921 27.25065102 13.91666921 27.25065102 16 29 C15.35546875 29.81726563 14.7109375 30.63453125 14.046875 31.4765625 C11.48098465 35.32539802 11.34004907 38.8479879 11.25 43.375 C11.22035156 44.11105469 11.19070313 44.84710938 11.16015625 45.60546875 C11.09011967 47.4030743 11.04271881 49.2015379 11 51 C9.56344146 51.08131463 8.1255517 51.13933559 6.6875 51.1875 C5.48673828 51.23970703 5.48673828 51.23970703 4.26171875 51.29296875 C1.41387577 50.92407717 0.73804963 50.24924183 -1 48 C-1.32279968 45.81697083 -1.32279968 45.81697083 -1.2487793 43.25317383 C-1.22853195 42.29240433 -1.20828461 41.33163483 -1.18742371 40.3417511 C-1.15006607 39.30729355 -1.11270844 38.272836 -1.07421875 37.20703125 C-1.03455742 35.61528328 -1.03455742 35.61528328 -0.99409485 33.99137878 C-0.90623612 30.59785306 -0.79711816 27.20538586 -0.6875 23.8125 C-0.62425133 21.51370996 -0.56238495 19.21488144 -0.50195312 16.91601562 C-0.3506792 11.27677184 -0.18033488 5.63838627 0 0 Z " fill="#151B1F" transform="translate(319,58)"/>
<path d="M0 0 C0.33 0.66 0.66 1.32 1 2 C2.0725 1.649375 3.145 1.29875 4.25 0.9375 C8.92307692 -0.23076923 8.92307692 -0.23076923 12 1 C11.27991594 5.60853797 9.68704061 9.67237409 8 14 C11.3 14 14.6 14 18 14 C18 14.66 18 15.32 18 16 C16.04310963 16.36205464 14.08442332 16.71441421 12.125 17.0625 C11.03445312 17.25972656 9.94390625 17.45695312 8.8203125 17.66015625 C6 18 6 18 4 17 C3.67 17.99 3.34 18.98 3 20 C3.66 20 4.32 20 5 20 C5 20.99 5 21.98 5 23 C7.97 23.33 10.94 23.66 14 24 C14 24.33 14 24.66 14 25 C10.7 25 7.4 25 4 25 C3.71125 26.2375 3.4225 27.475 3.125 28.75 C2.42442664 31.75245727 1.4576935 34.28060541 0 37 C-1.43739513 37.02712066 -2.87493863 37.04645067 -4.3125 37.0625 C-5.11300781 37.07410156 -5.91351563 37.08570313 -6.73828125 37.09765625 C-9 37 -9 37 -12 36 C-11.55178807 31.60752306 -10.6543624 28.08711669 -8.87133789 24.06713867 C-7.16489092 20.01880959 -5.80080318 15.84105798 -4.375 11.6875 C-3.75900366 9.8993288 -3.14187213 8.11154813 -2.5234375 6.32421875 C-2.25450684 5.54135498 -1.98557617 4.75849121 -1.70849609 3.9519043 C-1 2 -1 2 0 0 Z " fill="#2B3235" transform="translate(216,72)"/>
<path d="M0 0 C1.37478516 0.01740234 1.37478516 0.01740234 2.77734375 0.03515625 C3.69644531 0.04417969 4.61554688 0.05320313 5.5625 0.0625 C6.27277344 0.07410156 6.98304688 0.08570313 7.71484375 0.09765625 C10.36931873 6.2914312 11.45910435 12.36146711 10.71484375 19.09765625 C8.6591644 22.18117527 6.36236379 24.51980779 3.71484375 27.09765625 C3.71484375 25.44765625 3.71484375 23.79765625 3.71484375 22.09765625 C3.05484375 22.09765625 2.39484375 22.09765625 1.71484375 22.09765625 C1.71484375 22.75765625 1.71484375 23.41765625 1.71484375 24.09765625 C1.05484375 24.42765625 0.39484375 24.75765625 -0.28515625 25.09765625 C-0.61515625 26.08765625 -0.94515625 27.07765625 -1.28515625 28.09765625 C-2.93954238 28.79423988 -4.60769943 29.45862508 -6.28515625 30.09765625 C-8.05792884 31.61773467 -8.05792884 31.61773467 -9.28515625 33.09765625 C-10.28515625 32.09765625 -10.28515625 32.09765625 -10.59765625 28.91015625 C-10.52733721 22.39392551 -8.23411327 16.25299534 -6.28515625 10.09765625 C-5.98867188 9.15148437 -5.6921875 8.2053125 -5.38671875 7.23046875 C-3.09626144 0.13231886 -3.09626144 0.13231886 0 0 Z " fill="#171D21" transform="translate(278.28515625,56.90234375)"/>
<path d="M0 0 C3.63 0 7.26 0 11 0 C11.33 5.94 11.66 11.88 12 18 C13.670625 15.7725 13.670625 15.7725 15.375 13.5 C17.2734375 10.96875 17.2734375 10.96875 19 9 C19.66 9 20.32 9 21 9 C21.309375 8.38125 21.61875 7.7625 21.9375 7.125 C22.625 5.75 23.3125 4.375 24 3 C24.66 3 25.32 3 26 3 C26.33 2.01 26.66 1.02 27 0 C31.62 0 36.24 0 41 0 C40.67 1.32 40.34 2.64 40 4 C39.34 4 38.68 4 38 4 C38 4.66 38 5.32 38 6 C37.34 6 36.68 6 36 6 C35.7525 6.72832031 35.505 7.45664063 35.25 8.20703125 C33.87852389 11.27142319 32.27152558 13.22807248 30 15.6875 C29.29875 16.45449219 28.5975 17.22148438 27.875 18.01171875 C26.60329629 19.36025456 25.31068287 20.68931713 24 22 C23.67 21.34 23.34 20.68 23 20 C22.01 20 21.02 20 20 20 C19.67 20.66 19.34 21.32 19 22 C18.01 22 17.02 22 16 22 C15.67 22.66 15.34 23.32 15 24 C12.9375 25.125 12.9375 25.125 11 26 C10.24636948 22.64908229 9.88020063 19.56890188 9.90234375 16.13671875 C9.90556641 15.25048828 9.90878906 14.36425781 9.91210938 13.45117188 C9.92048828 12.53916016 9.92886719 11.62714844 9.9375 10.6875 C9.94201172 9.75615234 9.94652344 8.82480469 9.95117188 7.86523438 C9.96290746 5.57679513 9.98084139 3.28838914 10 1 C6.7 1 3.4 1 0 1 C0 0.67 0 0.34 0 0 Z " fill="#252B2F" transform="translate(319,57)"/>
<path d="M0 0 C0.66 0 1.32 0 2 0 C2.95972174 2.54115002 3.91781494 5.08289457 4.875 7.625 C5.14441406 8.33785156 5.41382813 9.05070312 5.69140625 9.78515625 C6.46948141 11.85369754 7.23493417 13.92662025 8 16 C8.39445312 17.03898437 8.78890625 18.07796875 9.1953125 19.1484375 C10.06268684 22.22214269 10.15133006 24.82206865 10 28 C8.06164034 27.93989582 6.12415509 27.85108283 4.1875 27.75 C3.10855469 27.70359375 2.02960938 27.6571875 0.91796875 27.609375 C-2 27 -2 27 -3.84375 25.1875 C-5.4246772 22.19655664 -5.67884917 19.33996863 -6 16 C-7.65 16 -9.3 16 -11 16 C-11 15.67 -11 15.34 -11 15 C-9.02 15 -7.04 15 -5 15 C-4.814375 13.5459375 -4.814375 13.5459375 -4.625 12.0625 C-4.41875 11.051875 -4.2125 10.04125 -4 9 C-2.66666667 8.33333333 -1.33333333 7.66666667 0 7 C0 6.34 0 5.68 0 5 C0.66 5 1.32 5 2 5 C1.01 3.68 0.02 2.36 -1 1 C-0.67 0.67 -0.34 0.34 0 0 Z " fill="#1C2226" transform="translate(242,81)"/>
<path d="M0 0 C4.42117715 1.35091524 6.443343 3.1650145 9 7 C10.62139899 11.05349746 10.71045269 15.87690301 9.328125 20.0078125 C8.60401667 21.69512154 7.80765038 23.35104714 7 25 C5.45428722 22.68143083 4.20381448 20.49361571 3 18 C0.1490712 18.7018576 0.1490712 18.7018576 -1 20 C-3.0625 19.5625 -3.0625 19.5625 -5 19 C-4.34 18.01 -3.68 17.02 -3 16 C-3.33 14.35 -3.66 12.7 -4 11 C-7.96 11 -11.92 11 -16 11 C-16 13.64 -16 16.28 -16 19 C-12.7 19.33 -9.4 19.66 -6 20 C-6 20.33 -6 20.66 -6 21 C-9.63 21 -13.26 21 -17 21 C-17 17.04 -17 13.08 -17 9 C-10.565 8.505 -10.565 8.505 -4 8 C-3.67 6.68 -3.34 5.36 -3 4 C-1.68 4 -0.36 4 1 4 C1.66 3.67 2.32 3.34 3 3 C2.01 2.67 1.02 2.34 0 2 C0 1.34 0 0.68 0 0 Z " fill="#3C4244" transform="translate(391,59)"/>
<path d="M0 0 C0.66 0.33 1.32 0.66 2 1 C2 1.66 2 2.32 2 3 C4.475 3.495 4.475 3.495 7 4 C7 4.99 7 5.98 7 7 C7.33 7.99 7.66 8.98 8 10 C7.34 10 6.68 10 6 10 C5.566875 11.2065625 5.566875 11.2065625 5.125 12.4375 C4 15 4 15 2 16 C1.34786708 18.02463255 1.34786708 18.02463255 1 20 C-4.8685408 21.14819277 -10.0885256 20.77313045 -16 20 C-15.67 18.68 -15.34 17.36 -15 16 C-15.66 16 -16.32 16 -17 16 C-17 14.35 -17 12.7 -17 11 C-16.21625 11.350625 -15.4325 11.70125 -14.625 12.0625 C-13.75875 12.371875 -12.8925 12.68125 -12 13 C-11.34 12.67 -10.68 12.34 -10 12 C-7.3276379 11.86584528 -4.67749512 11.95681459 -2 12 C-2.20625 11.0925 -2.4125 10.185 -2.625 9.25 C-3.01898408 5.83547132 -2.80313453 4.80487594 -1 2 C-0.67 1.34 -0.34 0.68 0 0 Z " fill="#0B1216" transform="translate(236,76)"/>
<path d="M0 0 C4.62 0 9.24 0 14 0 C19 8.75 19 8.75 19 11 C19.66 11.33 20.32 11.66 21 12 C21.66 12.33 22.32 12.66 23 13 C23 14.32 23 15.64 23 17 C22.34 17 21.68 17 21 17 C21 16.34 21 15.68 21 15 C20.4225 14.87625 19.845 14.7525 19.25 14.625 C16.97664233 13.99351176 15.0746471 13.11141809 13 12 C12.87625 12.78375 12.7525 13.5675 12.625 14.375 C12 17 12 17 10 19 C8.70043409 16.963006 7.4103739 14.92092385 6.125 12.875 C5.57779297 12.02035156 5.57779297 12.02035156 5.01953125 11.1484375 C2.66552519 7.3820278 1.44349947 4.33049841 0 0 Z " fill="#272C2F" transform="translate(425,57)"/>
<path d="M0 0 C3.5388638 0.0430257 6.91944522 0.27282432 10.41796875 0.796875 C9.59971601 4.45120765 8.15362177 7.4764953 6.41796875 10.796875 C5.75796875 10.796875 5.09796875 10.796875 4.41796875 10.796875 C4.30582031 11.35890625 4.19367188 11.9209375 4.078125 12.5 C3.32739536 15.11200608 2.20629499 17.19158822 0.85546875 19.546875 C0.40042969 20.34609375 -0.05460937 21.1453125 -0.5234375 21.96875 C-0.87277344 22.57203125 -1.22210938 23.1753125 -1.58203125 23.796875 C-2.24203125 22.806875 -2.90203125 21.816875 -3.58203125 20.796875 C-5.23203125 21.456875 -6.88203125 22.116875 -8.58203125 22.796875 C-8.27265625 22.03375 -7.96328125 21.270625 -7.64453125 20.484375 C-6.90309532 18.60897823 -6.21974908 16.71002848 -5.58203125 14.796875 C-4.83953125 14.6525 -4.09703125 14.508125 -3.33203125 14.359375 C-1.06175386 13.89500008 1.17556354 13.37823931 3.41796875 12.796875 C2.70233609 10.7806517 2.70233609 10.7806517 1.41796875 8.796875 C-0.63203996 7.99158611 -0.63203996 7.99158611 -2.58203125 7.796875 C-2.58203125 8.456875 -2.58203125 9.116875 -2.58203125 9.796875 C-4.89453125 11.984375 -4.89453125 11.984375 -7.58203125 13.796875 C-8.57203125 13.466875 -9.56203125 13.136875 -10.58203125 12.796875 C-6.04929582 1.34575392 -6.04929582 1.34575392 0 0 Z " fill="#343A3E" transform="translate(458.58203125,56.203125)"/>
<path d="M0 0 C3.13272458 0.07285406 5.26611628 0.24525653 7.51171875 2.5546875 C11 7.37231375 11 7.37231375 11 10 C11.99 10.33 12.98 10.66 14 11 C13.67 11.66 13.34 12.32 13 13 C7.81665803 13.66042581 3.15807256 13.99030757 -2 13 C-5.36315832 9.77568766 -7.21652593 6.27478609 -9 2 C-8.01 1.67 -7.02 1.34 -6 1 C-3.48916886 2.25541557 -3.12874554 3.50063488 -2 6 C-0.68 5.67 0.64 5.34 2 5 C2.33 3.68 2.66 2.36 3 1 C2.34 1 1.68 1 1 1 C0.67 1.66 0.34 2.32 0 3 C0 2.01 0 1.02 0 0 Z " fill="#2E3235" transform="translate(348,95)"/>
<path d="M0 0 C2.12046792 3.53411321 2.53199289 6.94393835 3 11 C3.66 11 4.32 11 5 11 C4.67 12.32 4.34 13.64 4 15 C4.99 14.67 5.98 14.34 7 14 C6.67 15.98 6.34 17.96 6 20 C5.01 19.01 4.02 18.02 3 17 C2.01 17.33 1.02 17.66 0 18 C0 18.66 0 19.32 0 20 C-0.99 19.67 -1.98 19.34 -3 19 C-3.66 20.32 -4.32 21.64 -5 23 C-5.36402369 21.56496445 -5.71586591 20.12683494 -6.0625 18.6875 C-6.35833984 17.48673828 -6.35833984 17.48673828 -6.66015625 16.26171875 C-7 14 -7 14 -6 11 C-5.34 11 -4.68 11 -4 11 C-3.67 10.01 -3.34 9.02 -3 8 C-2.34 7.34 -1.68 6.68 -1 6 C-0.60235737 4.01178687 -0.26224651 2.01055661 0 0 Z " fill="#2F3438" transform="translate(289,70)"/>
<path d="M0 0 C0.33 0 0.66 0 1 0 C1.25485425 3.26936494 1.47442831 6.54016741 1.6875 9.8125 C1.76033203 10.74126953 1.83316406 11.67003906 1.90820312 12.62695312 C1.96298828 13.51962891 2.01777344 14.41230469 2.07421875 15.33203125 C2.16062622 16.56530151 2.16062622 16.56530151 2.2487793 17.82348633 C1.93648545 20.55567441 0.95897712 21.17151475 -1 23 C-1 23.99 -1 24.98 -1 26 C-1.66 26 -2.32 26 -3 26 C-3 26.66 -3 27.32 -3 28 C-3.78375 27.979375 -4.5675 27.95875 -5.375 27.9375 C-7.98114961 27.81315937 -7.98114961 27.81315937 -10 29 C-10.45375 28.195625 -10.9075 27.39125 -11.375 26.5625 C-12.74725665 23.91143428 -12.74725665 23.91143428 -15 23 C-15 22.34 -15 21.68 -15 21 C-15.99 20.67 -16.98 20.34 -18 20 C-12.06 20 -6.12 20 0 20 C0 13.4 0 6.8 0 0 Z " fill="#090F13" transform="translate(189,58)"/>
<path d="M0 0 C0.99 0.33 1.98 0.66 3 1 C2.67 1.66 2.34 2.32 2 3 C1.34 3 0.68 3 0 3 C1.1265345 6.89954249 2.08526956 9.2177573 5 12 C5 12.99 5 13.98 5 15 C-1.435 15.495 -1.435 15.495 -8 16 C-9 12 -9 12 -7.890625 9.74609375 C-7.34921875 8.98425781 -6.8078125 8.22242187 -6.25 7.4375 C-5.71890625 6.67308594 -5.1878125 5.90867187 -4.640625 5.12109375 C-3.1956656 3.25296767 -1.7156525 1.61746757 0 0 Z " fill="#090E12" transform="translate(433,93)"/>
<path d="M0 0 C0.99 0.33 1.98 0.66 3 1 C3 1.66 3 2.32 3 3 C0.00372383 3.86774887 -2.65359883 4.12189893 -5.76855469 4.11352539 C-6.70922791 4.11344986 -7.64990112 4.11337433 -8.61907959 4.11329651 C-9.62650208 4.10813522 -10.63392456 4.10297394 -11.671875 4.09765625 C-12.70942932 4.0962413 -13.74698364 4.09482635 -14.815979 4.09336853 C-18.12734876 4.08777447 -21.43865071 4.07522303 -24.75 4.0625 C-26.99609277 4.05748423 -29.24218661 4.05292146 -31.48828125 4.04882812 C-36.9922106 4.03780699 -42.49610046 4.02107474 -48 4 C-47.67 3.01 -47.34 2.02 -47 1 C-23.735 1.495 -23.735 1.495 0 2 C0 1.34 0 0.68 0 0 Z " fill="#3D4860" transform="translate(80,140)"/>
<path d="M0 0 C1.90747183 2.86120775 3.00353706 5.35254993 4.1875 8.5625 C4.73470703 10.01849609 4.73470703 10.01849609 5.29296875 11.50390625 C6 14 6 14 5 16 C3.0625 15.625 3.0625 15.625 1 15 C0.67 14.34 0.34 13.68 0 13 C-0.45375 13.78375 -0.9075 14.5675 -1.375 15.375 C-3 18 -3 18 -5 20 C-6.6435979 16.51943975 -7.29703854 14.65529044 -6 11 C-5.814375 10.2575 -5.62875 9.515 -5.4375 8.75 C-5.293125 8.1725 -5.14875 7.595 -5 7 C-3.68 7 -2.36 7 -1 7 C-1.33 6.01 -1.66 5.02 -2 4 C-1.0625 1.8125 -1.0625 1.8125 0 0 Z " fill="#292F33" transform="translate(237,64)"/>
<path d="M0 0 C3.63 0 7.26 0 11 0 C11.33 5.94 11.66 11.88 12 18 C13.65 16.68 15.3 15.36 17 14 C20.8125 14.25 20.8125 14.25 24 15 C23.67 15.99 23.34 16.98 23 18 C22.401875 18.12375 21.80375 18.2475 21.1875 18.375 C18.01831566 19.28048124 16.99130453 21.44864107 15 24 C12.75 25.3125 12.75 25.3125 11 26 C10.24636948 22.64908229 9.88020063 19.56890188 9.90234375 16.13671875 C9.90556641 15.25048828 9.90878906 14.36425781 9.91210938 13.45117188 C9.92048828 12.53916016 9.92886719 11.62714844 9.9375 10.6875 C9.94201172 9.75615234 9.94652344 8.82480469 9.95117188 7.86523438 C9.96290746 5.57679513 9.98084139 3.28838914 10 1 C6.7 1 3.4 1 0 1 C0 0.67 0 0.34 0 0 Z " fill="#42474A" transform="translate(319,57)"/>
<path d="M0 0 C2.26921536 -0.13489391 4.5407067 -0.23193995 6.8125 -0.3125 C8.70935547 -0.39951172 8.70935547 -0.39951172 10.64453125 -0.48828125 C14 0 14 0 16.01171875 2.39453125 C16.50091797 3.68423828 16.50091797 3.68423828 17 5 C16.67 5.66 16.34 6.32 16 7 C15.34 6.67 14.68 6.34 14 6 C13.67 7.65 13.34 9.3 13 11 C12.34 11 11.68 11 11 11 C11 10.01 11 9.02 11 8 C9.35 7.67 7.7 7.34 6 7 C6.375 5.0625 6.375 5.0625 7 3 C7.66 2.67 8.32 2.34 9 2 C7.68 2 6.36 2 5 2 C5.33 2.99 5.66 3.98 6 5 C5.0625 7.1875 5.0625 7.1875 4 9 C0 2.25 0 2.25 0 0 Z " fill="#22292C" transform="translate(425,57)"/>
<path d="M0 0 C1.64574566 -0.02688151 3.29161413 -0.04634123 4.9375 -0.0625 C5.85402344 -0.07410156 6.77054688 -0.08570313 7.71484375 -0.09765625 C10 0 10 0 11 1 C10.53017945 7.34257749 10.53017945 7.34257749 8.4375 9.9375 C7.963125 10.288125 7.48875 10.63875 7 11 C6.67 10.34 6.34 9.68 6 9 C4.02 9.99 4.02 9.99 2 11 C0.80712589 7.12315913 0 4.08378077 0 0 Z " fill="#151B20" transform="translate(247,58)"/>
<path d="M0 0 C2.6015625 -0.29296875 2.6015625 -0.29296875 5.625 -0.1875 C7.12933594 -0.14689453 7.12933594 -0.14689453 8.6640625 -0.10546875 C9.43492187 -0.07066406 10.20578125 -0.03585938 11 0 C11 0.66 11 1.32 11 2 C10.34 2 9.68 2 9 2 C9 2.66 9 3.32 9 4 C8.34 4 7.68 4 7 4 C6.566875 5.2065625 6.566875 5.2065625 6.125 6.4375 C5 9 5 9 3 10 C2.34 9.34 1.68 8.68 1 8 C0.01 8.495 0.01 8.495 -1 9 C-1 7.68 -1 6.36 -1 5 C-1.66 5 -2.32 5 -3 5 C-3.33 5.99 -3.66 6.98 -4 8 C-4.66 7.67 -5.32 7.34 -6 7 C-5.67 6.01 -5.34 5.02 -5 4 C-4.01 3.67 -3.02 3.34 -2 3 C-1.34 2.01 -0.68 1.02 0 0 Z " fill="#181F23" transform="translate(348,59)"/>
<path d="M0 0 C-0.33 0.99 -0.66 1.98 -1 3 C-1.91523438 2.98839844 -2.83046875 2.97679687 -3.7734375 2.96484375 C-4.96195313 2.95582031 -6.15046875 2.94679688 -7.375 2.9375 C-8.55835938 2.92589844 -9.74171875 2.91429687 -10.9609375 2.90234375 C-13.91921521 2.78533407 -13.91921521 2.78533407 -16 4 C-16.66 3.67 -17.32 3.34 -18 3 C-20.40560273 2.84391977 -22.78702772 2.74195542 -25.1953125 2.68359375 C-25.90275604 2.66281265 -26.61019958 2.64203156 -27.33908081 2.62062073 C-29.60095425 2.55518922 -31.86294462 2.49627026 -34.125 2.4375 C-35.65756422 2.39430867 -37.19011657 2.35069418 -38.72265625 2.30664062 C-42.48165073 2.19951445 -46.24076292 2.0982291 -50 2 C-50 1.67 -50 1.34 -50 1 C-33.32415914 0.2757172 -16.69185719 -0.15740182 0 0 Z " fill="#142533" transform="translate(157,19)"/>
<path d="M0 0 C0 1.98 0 3.96 0 6 C-2.8125 7.5625 -2.8125 7.5625 -6 9 C-6.99 8.67 -7.98 8.34 -9 8 C-9.33 9.65 -9.66 11.3 -10 13 C-10.99 13 -11.98 13 -13 13 C-13.33 11.02 -13.66 9.04 -14 7 C-12.35 6.67 -10.7 6.34 -9 6 C-8.67 5.01 -8.34 4.02 -8 3 C-7.34 3 -6.68 3 -6 3 C-6 2.34 -6 1.68 -6 1 C-3 0 -3 0 0 0 Z " fill="#0A1216" transform="translate(462,63)"/>
<path d="M0 0 C0.66 0 1.32 0 2 0 C2.95972174 2.54115002 3.91781494 5.08289457 4.875 7.625 C5.14441406 8.33785156 5.41382813 9.05070312 5.69140625 9.78515625 C10.2857442 21.99937178 10.2857442 21.99937178 10 28 C7.31362289 25.31362289 7.01656766 22.6215223 6 19 C4.33075929 15.95865509 4.33075929 15.95865509 2 15 C2.66 13.02 3.32 11.04 4 9 C2.68 9.33 1.36 9.66 0 10 C-0.66 9.01 -1.32 8.02 -2 7 C-1.34 7 -0.68 7 0 7 C0 6.34 0 5.68 0 5 C0.66 5 1.32 5 2 5 C1.01 3.68 0.02 2.36 -1 1 C-0.67 0.67 -0.34 0.34 0 0 Z " fill="#545759" transform="translate(242,81)"/>
<path d="M0 0 C1.35156083 0.00502861 2.70312348 0.00958909 4.0546875 0.01367188 C7.32817265 0.02536289 10.60156186 0.04174971 13.875 0.0625 C13.875 1.0525 13.875 2.0425 13.875 3.0625 C-5.43 2.5675 -5.43 2.5675 -25.125 2.0625 C-25.125 1.7325 -25.125 1.4025 -25.125 1.0625 C-16.74499613 -0.03349874 -8.4405013 -0.05442784 0 0 Z " fill="#1E2B3A" transform="translate(73.125,18.9375)"/>
<path d="M0 0 C1 3 1 3 0.0625 5.1875 C-0.4634375 6.0846875 -0.4634375 6.0846875 -1 7 C0.65 7.33 2.3 7.66 4 8 C3.50168276 11.68754757 2.89932357 13.60490662 0 16 C-4.92307692 11.69230769 -4.92307692 11.69230769 -5.3125 8.1875 C-5.209375 7.465625 -5.10625 6.74375 -5 6 C-4.34 6 -3.68 6 -3 6 C-2.87625 5.195625 -2.7525 4.39125 -2.625 3.5625 C-2.41875 2.716875 -2.2125 1.87125 -2 1 C-1.34 0.67 -0.68 0.34 0 0 Z " fill="#0B1317" transform="translate(438,90)"/>
<path d="M0 0 C0.99 0.495 0.99 0.495 2 1 C3.67654729 0.72057545 5.34608154 0.39171753 7 0 C6.67 1.98 6.34 3.96 6 6 C7.98 6 9.96 6 12 6 C12.33 5.34 12.66 4.68 13 4 C12.67 5.65 12.34 7.3 12 9 C10.37581255 9.08090971 8.75048255 9.13914995 7.125 9.1875 C5.76761719 9.23970703 5.76761719 9.23970703 4.3828125 9.29296875 C3.20332031 9.14794922 3.20332031 9.14794922 2 9 C-0.29013653 5.5647952 -0.17842973 4.014669 0 0 Z " fill="#474947" transform="translate(288,100)"/>
<path d="M0 0 C0.99 0.33 1.98 0.66 3 1 C3 1.66 3 2.32 3 3 C2.34 3 1.68 3 1 3 C1 3.66 1 4.32 1 5 C0.01 5.495 0.01 5.495 -1 6 C-1.33 6.99 -1.66 7.98 -2 9 C-4.5625 10.1875 -4.5625 10.1875 -7 11 C-7.99 9.35 -8.98 7.7 -10 6 C-8.6875 4.5 -8.6875 4.5 -7 3 C-6.01 3 -5.02 3 -4 3 C-2.66018514 2.6937566 -1.32488113 2.36548445 0 2 C0 1.34 0 0.68 0 0 Z M-9 10 C-8.67 10.99 -8.34 11.98 -8 13 C-8.99 13 -9.98 13 -11 13 C-11 12.34 -11 11.68 -11 11 C-10.34 10.67 -9.68 10.34 -9 10 Z " fill="#091014" transform="translate(279,76)"/>
<path d="M0 0 C1.51400391 0.01740234 1.51400391 0.01740234 3.05859375 0.03515625 C4.07050781 0.04417969 5.08242188 0.05320313 6.125 0.0625 C7.29869141 0.07990234 7.29869141 0.07990234 8.49609375 0.09765625 C8.49609375 0.42765625 8.49609375 0.75765625 8.49609375 1.09765625 C6.18609375 1.09765625 3.87609375 1.09765625 1.49609375 1.09765625 C1.16609375 2.74765625 0.83609375 4.39765625 0.49609375 6.09765625 C-0.16390625 6.09765625 -0.82390625 6.09765625 -1.50390625 6.09765625 C-1.50390625 6.75765625 -1.50390625 7.41765625 -1.50390625 8.09765625 C-3.81640625 10.28515625 -3.81640625 10.28515625 -6.50390625 12.09765625 C-7.49390625 11.76765625 -8.48390625 11.43765625 -9.50390625 11.09765625 C-8.52652856 9.4507599 -7.54695305 7.80516771 -6.56640625 6.16015625 C-6.02113281 5.24363281 -5.47585938 4.32710937 -4.9140625 3.3828125 C-2.89625514 0.11295847 -2.89625514 0.11295847 0 0 Z " fill="#1A2022" transform="translate(457.50390625,57.90234375)"/>
<path d="M0 0 C4.62 0 9.24 0 14 0 C13 4 13 4 12 6 C11.01 6.33 10.02 6.66 9 7 C8.67 7.66 8.34 8.32 8 9 C5.525 8.01 5.525 8.01 3 7 C3.33 5.35 3.66 3.7 4 2 C2.68 1.34 1.36 0.68 0 0 Z " fill="#414547" transform="translate(455,57)"/>
<path d="M0 0 C0.33 0 0.66 0 1 0 C1.184693 12.02556648 0.61321066 23.9934657 0 36 C-0.33 36 -0.66 36 -1 36 C-1 30.06 -1 24.12 -1 18 C-1.99 18.33 -2.98 18.66 -4 19 C-3.24568138 13.46833013 -3.24568138 13.46833013 -2 11.09375 C-0.87500382 8.73828924 -0.60362147 6.84104329 -0.375 4.25 C-0.30023438 3.45078125 -0.22546875 2.6515625 -0.1484375 1.828125 C-0.09945312 1.22484375 -0.05046875 0.6215625 0 0 Z " fill="#0E2738" transform="translate(77,97)"/>
<path d="M0 0 C0.66 0.33 1.32 0.66 2 1 C0.125 5.75 0.125 5.75 -1 8 C-0.34 8.33 0.32 8.66 1 9 C0.67 9.33 0.34 9.66 0 10 C2.64 10.33 5.28 10.66 8 11 C8 11.33 8 11.66 8 12 C1.565 12.495 1.565 12.495 -5 13 C-6 9 -6 9 -4.78515625 6.640625 C-4.21667969 5.85171875 -3.64820313 5.0628125 -3.0625 4.25 C-2.49660156 3.45078125 -1.93070312 2.6515625 -1.34765625 1.828125 C-0.90292969 1.22484375 -0.45820313 0.6215625 0 0 Z " fill="#737470" transform="translate(430,96)"/>
<path d="M0 0 C1.91729577 2.81955261 1.99331618 4.07619554 1.6875 7.5625 C1 11 1 11 0 14 C0.66 14.33 1.32 14.66 2 15 C1.01 16.485 1.01 16.485 0 18 C-1.96818336 12.17745757 -3.40214229 7.16618181 -3 1 C-2.01 0.67 -1.02 0.34 0 0 Z " fill="#373B3E" transform="translate(253,66)"/>
<path d="M0 0 C0.66 0.33 1.32 0.66 2 1 C2 1.66 2 2.32 2 3 C2.99 3 3.98 3 5 3 C5 2.34 5 1.68 5 1 C5.66 1 6.32 1 7 1 C7 1.99 7 2.98 7 4 C7.66 4 8.32 4 9 4 C8.875 5.875 8.875 5.875 8 8 C4.9375 9.25 4.9375 9.25 2 10 C2 8.35 2 6.7 2 5 C0.68 4.34 -0.64 3.68 -2 3 C-1.34 2.01 -0.68 1.02 0 0 Z " fill="#0A1216" transform="translate(342,92)"/>
<path d="M0 0 C2 3 2 3 2 8 C-8.23 7.67 -18.46 7.34 -29 7 C-29 5.02 -29 3.04 -29 1 C-28.67 1 -28.34 1 -28 1 C-28 2.65 -28 4.3 -28 6 C-18.76 6 -9.52 6 0 6 C0 4.02 0 2.04 0 0 Z " fill="#96A5AE" transform="translate(111,57)"/>
<path d="M0 0 C0.66 0 1.32 0 2 0 C2.36590746 1.72672034 2.71722195 3.45653655 3.0625 5.1875 C3.25972656 6.15042969 3.45695312 7.11335938 3.66015625 8.10546875 C4.00423947 11.03610862 3.74164697 13.16307068 3 16 C2.34 15.01 1.68 14.02 1 13 C0.67 15.64 0.34 18.28 0 21 C-0.33 21 -0.66 21 -1 21 C-1.13794954 13.93391809 -0.74805717 7.02639415 0 0 Z " fill="#425866" transform="translate(113,34)"/>
<path d="M0 0 C0.33 0 0.66 0 1 0 C2.41095583 8.27506525 1.43377448 15.77653317 0 24 C-0.33 24 -0.66 24 -1 24 C-1.02887236 20.18751574 -1.04675492 16.3750593 -1.0625 12.5625 C-1.07087891 11.47388672 -1.07925781 10.38527344 -1.08789062 9.26367188 C-1.09111328 8.22919922 -1.09433594 7.19472656 -1.09765625 6.12890625 C-1.10289307 5.17056885 -1.10812988 4.21223145 -1.11352539 3.22485352 C-1 1 -1 1 0 0 Z " fill="#344958" transform="translate(49,58)"/>
<path d="M0 0 C2.97 0 5.94 0 9 0 C5 2 5 2 3 2 C3 2.99 3 3.98 3 5 C3.639375 5.20625 4.27875 5.4125 4.9375 5.625 C7 7 7 7 7.75 10.125 C7.8325 11.07375 7.915 12.0225 8 13 C6.68 13 5.36 13 4 13 C4.66 12.67 5.32 12.34 6 12 C5.67 10.68 5.34 9.36 5 8 C3.68 8 2.36 8 1 8 C0.67 7.01 0.34 6.02 0 5 C0.33 4.34 0.66 3.68 1 3 C0.67 2.01 0.34 1.02 0 0 Z " fill="#0B1113" transform="translate(429,58)"/>
<path d="M0 0 C0.33 0 0.66 0 1 0 C1.22424141 7.36259293 0.90120099 13.87049629 -1 21 C-2.73252349 17.78832601 -3.2984943 15.68142974 -3 12 C-2.67 11.67 -2.34 11.34 -2 11 C-1.79224439 9.33795513 -1.63281745 7.66970509 -1.5 6 C-1.11111111 1.11111111 -1.11111111 1.11111111 0 0 Z " fill="#44525E" transform="translate(141,84)"/>
<path d="M0 0 C4.62 0 9.24 0 14 0 C14 0.66 14 1.32 14 2 C10.4735864 3.1754712 7.727703 2.94703104 4.05859375 2.7421875 C3.37925781 2.82726563 2.69992187 2.91234375 2 3 C1.01 4.485 1.01 4.485 0 6 C-0.66 5.67 -1.32 5.34 -2 5 C-1.34 3.35 -0.68 1.7 0 0 Z " fill="#4D4F4F" transform="translate(346,57)"/>
<path d="M0 0 C4.62 0 9.24 0 14 0 C14 0.33 14 0.66 14 1 C9.545 1.495 9.545 1.495 5 2 C5.33 2.99 5.66 3.98 6 5 C5.0625 7.1875 5.0625 7.1875 4 9 C0 2.25 0 2.25 0 0 Z " fill="#666767" transform="translate(425,57)"/>
<path d="M0 0 C3.3 0 6.6 0 10 0 C11.60355101 3.50776784 12.22036864 6.14354879 12 10 C11.01 10.495 11.01 10.495 10 11 C9.67 9.35 9.34 7.7 9 6 C8.01 5.67 7.02 5.34 6 5 C6.33 4.01 6.66 3.02 7 2 C4.69 1.67 2.38 1.34 0 1 C0 0.67 0 0.34 0 0 Z " fill="#545758" transform="translate(276,57)"/>
<path d="M0 0 C1.49341969 2.98683937 0.40648676 4.95160978 -0.4375 8.125 C-0.72496094 9.22070312 -1.01242187 10.31640625 -1.30859375 11.4453125 C-1.65083984 12.70988281 -1.65083984 12.70988281 -2 14 C-3.49997444 11.05047042 -4.80023567 8.08510827 -6 5 C-5.38125 4.9175 -4.7625 4.835 -4.125 4.75 C-1.81562433 4.18741541 -1.81562433 4.18741541 -0.75 1.9375 C-0.5025 1.298125 -0.255 0.65875 0 0 Z " fill="#3D4245" transform="translate(310,72)"/>
<path d="M0 0 C0.66 0 1.32 0 2 0 C2 0.66 2 1.32 2 2 C2.66 2.33 3.32 2.66 4 3 C2.68 4.32 1.36 5.64 0 7 C-0.33 6.34 -0.66 5.68 -1 5 C-3.52733235 4.34444881 -3.52733235 4.34444881 -6 4 C-5.67 3.34 -5.34 2.68 -5 2 C-3.68 2 -2.36 2 -1 2 C-0.67 1.34 -0.34 0.68 0 0 Z M-6 5 C-5.67 5.66 -5.34 6.32 -5 7 C-5.66 6.67 -6.32 6.34 -7 6 C-6.67 5.67 -6.34 5.34 -6 5 Z " fill="#30363B" transform="translate(343,72)"/>
<path d="M0 0 C0.99 0.99 1.98 1.98 3 3 C2.34 4.65 1.68 6.3 1 8 C0.01 8 -0.98 8 -2 8 C-2.33 6.02 -2.66 4.04 -3 2 C-2.01 1.34 -1.02 0.68 0 0 Z " fill="#081114" transform="translate(261,92)"/>
<path d="M0 0 C0.33 0 0.66 0 1 0 C1 6.93 1 13.86 1 21 C0.67 21 0.34 21 0 21 C-0.06058594 20.11957031 -0.12117188 19.23914063 -0.18359375 18.33203125 C-0.26738281 17.17058594 -0.35117188 16.00914063 -0.4375 14.8125 C-0.51871094 13.66394531 -0.59992188 12.51539062 -0.68359375 11.33203125 C-0.95403812 8.48401829 -1.37521747 5.78789518 -2 3 C-1.34 3 -0.68 3 0 3 C0 2.01 0 1.02 0 0 Z " fill="#4A5C69" transform="translate(78,89)"/>
<path d="M0 0 C0.66 0 1.32 0 2 0 C3.49821059 3.37097383 4 5.20442119 4 9 C2.68 9.33 1.36 9.66 0 10 C-0.66 9.01 -1.32 8.02 -2 7 C-1.34 7 -0.68 7 0 7 C0 6.34 0 5.68 0 5 C0.66 5 1.32 5 2 5 C1.01 3.68 0.02 2.36 -1 1 C-0.67 0.67 -0.34 0.34 0 0 Z " fill="#363A3C" transform="translate(242,81)"/>
<path d="M0 0 C1.32 0 2.64 0 4 0 C4 0.66 4 1.32 4 2 C5.32 2.33 6.64 2.66 8 3 C6.68 3.99 5.36 4.98 4 6 C3.67 5.34 3.34 4.68 3 4 C1.68 4 0.36 4 -1 4 C-0.67 2.68 -0.34 1.36 0 0 Z " fill="#091013" transform="translate(387,59)"/>
<path d="M0 0 C1.79244141 0.01740234 1.79244141 0.01740234 3.62109375 0.03515625 C5.41740234 0.04869141 5.41740234 0.04869141 7.25 0.0625 C8.17683594 0.07410156 9.10367188 0.08570313 10.05859375 0.09765625 C10.05859375 0.42765625 10.05859375 0.75765625 10.05859375 1.09765625 C6.42859375 1.09765625 2.79859375 1.09765625 -0.94140625 1.09765625 C-1.60140625 3.40765625 -2.26140625 5.71765625 -2.94140625 8.09765625 C-3.60140625 7.76765625 -4.26140625 7.43765625 -4.94140625 7.09765625 C-3.90361093 0.12960196 -3.90361093 0.12960196 0 0 Z " fill="#616565" transform="translate(224.94140625,56.90234375)"/>
<path d="M0 0 C2.61047801 1.305239 2.68066423 2.35826574 3.625 5.0625 C3.88539063 5.79597656 4.14578125 6.52945313 4.4140625 7.28515625 C4.60742188 7.85105469 4.80078125 8.41695312 5 9 C3.02 9.99 3.02 9.99 1 11 C0.30710631 7.27569643 -0.11144596 3.78916254 0 0 Z " fill="#393E40" transform="translate(394,89)"/>
<path d="M0 0 C2.375 -0.1875 2.375 -0.1875 5 0 C7.29013653 3.4352048 7.17842973 4.985331 7 9 C4.03595495 6.19195732 1.55500981 3.81684226 0 0 Z " fill="#646F79" transform="translate(39,19)"/>
<path d="M0 0 C0.99 0 1.98 0 3 0 C2.67 0.99 2.34 1.98 2 3 C-4.6 3 -11.2 3 -18 3 C-18 2.67 -18 2.34 -18 2 C-12.06 2 -6.12 2 0 2 C0 1.34 0 0.68 0 0 Z " fill="#656789" transform="translate(147,141)"/>
<path d="M0 0 C1.65 0.33 3.3 0.66 5 1 C2.64480474 4.79448125 0.0369867 6.20578369 -4 8 C-2.87548273 5.0280615 -1.77706209 2.66559313 0 0 Z " fill="#44494A" transform="translate(435,88)"/>
<path d="M0 0 C1.32 0.66 2.64 1.32 4 2 C3.67 2.99 3.34 3.98 3 5 C0.36 4.67 -2.28 4.34 -5 4 C-4.34 3.34 -3.68 2.68 -3 2 C-2.01 2 -1.02 2 0 2 C0 1.34 0 0.68 0 0 Z " fill="#06090C" transform="translate(247,103)"/>
<path d="M0 0 C0.99 0.33 1.98 0.66 3 1 C3 2.32 3 3.64 3 5 C2.34 5 1.68 5 1 5 C0.67 5.66 0.34 6.32 0 7 C-0.99 6.01 -1.98 5.02 -3 4 C-2.01 2.68 -1.02 1.36 0 0 Z " fill="#12171B" transform="translate(453,76)"/>
<path d="M0 0 C0.99 0 1.98 0 3 0 C3 0.66 3 1.32 3 2 C3.66 2.33 4.32 2.66 5 3 C4.01 3.495 4.01 3.495 3 4 C3 4.99 3 5.98 3 7 C1.68 7.33 0.36 7.66 -1 8 C-1.33 7.01 -1.66 6.02 -2 5 C-1.34 4.34 -0.68 3.68 0 3 C0 2.01 0 1.02 0 0 Z " fill="#091013" transform="translate(212,86)"/>
<path d="M0 0 C2.31 0.66 4.62 1.32 7 2 C6.67 2.99 6.34 3.98 6 5 C3.125 5.125 3.125 5.125 0 5 C-0.66 4.34 -1.32 3.68 -2 3 C-1.34 2.67 -0.68 2.34 0 2 C0 1.34 0 0.68 0 0 Z " fill="#071114" transform="translate(389,76)"/>
<path d="M0 0 C1.98 0 3.96 0 6 0 C6 0.66 6 1.32 6 2 C5.34 2 4.68 2 4 2 C4 2.66 4 3.32 4 4 C2.35 4.33 0.7 4.66 -1 5 C-0.67 3.35 -0.34 1.7 0 0 Z " fill="#292D32" transform="translate(353,59)"/>
<path d="M0 0 C0.66 0.66 1.32 1.32 2 2 C2.66 1.67 3.32 1.34 4 1 C4.33 1.99 4.66 2.98 5 4 C2.94766315 6.2477975 1.99332739 7.0022242 -1 8 C-0.67 5.36 -0.34 2.72 0 0 Z " fill="#344C5E" transform="translate(106,118)"/>
<path d="M0 0 C-1.15173355 2.46800047 -2.04783565 4.04783565 -4 6 C-4.99 4.68 -5.98 3.36 -7 2 C-4 0 -4 0 0 0 Z " fill="#323538" transform="translate(442,100)"/>
<path d="M0 0 C2.475 0.495 2.475 0.495 5 1 C5.33 3.31 5.66 5.62 6 8 C1.125 3.375 1.125 3.375 0 0 Z " fill="#494D4E" transform="translate(339,96)"/>
<path d="M0 0 C0.33 1.32 0.66 2.64 1 4 C-0.9375 6.25 -0.9375 6.25 -3 8 C-3.99 7.67 -4.98 7.34 -6 7 C-4.02 4.69 -2.04 2.38 0 0 Z " fill="#55636F" transform="translate(42,131)"/>
<path d="M0 0 C1.32 0 2.64 0 4 0 C3.625 2.9375 3.625 2.9375 3 6 C2.01 6.495 2.01 6.495 1 7 C0.67 4.69 0.34 2.38 0 0 Z " fill="#383B3D" transform="translate(396,77)"/>
<path d="M0 0 C2.1519437 3.22791555 2.20086443 4.28400809 2 8 C-0.97 7.67 -3.94 7.34 -7 7 C-7 6.67 -7 6.34 -7 6 C-4.69 6 -2.38 6 0 6 C0 4.02 0 2.04 0 0 Z " fill="#798996" transform="translate(111,57)"/>
<path d="M0 0 C0.99 0.66 1.98 1.32 3 2 C1.8125 3.5 1.8125 3.5 0 5 C-2.6875 5.1875 -2.6875 5.1875 -5 5 C-3.35 3.35 -1.7 1.7 0 0 Z " fill="#546570" transform="translate(100,132)"/>
<path d="M0 0 C0.66 0.33 1.32 0.66 2 1 C2.125 4.375 2.125 4.375 2 8 C1.34 8.66 0.68 9.32 0 10 C-0.19412181 8.52168779 -0.38012131 7.04230684 -0.5625 5.5625 C-0.66691406 4.73878906 -0.77132812 3.91507812 -0.87890625 3.06640625 C-0.91886719 2.38449219 -0.95882812 1.70257813 -1 1 C-0.67 0.67 -0.34 0.34 0 0 Z " fill="#324753" transform="translate(139,95)"/>
<path d="M0 0 C3 2 3 2 3.6875 4.625 C3.790625 5.40875 3.89375 6.1925 4 7 C2.35 6.67 0.7 6.34 -1 6 C-0.67 4.02 -0.34 2.04 0 0 Z " fill="#3A3F41" transform="translate(239,73)"/>
<path d="M0 0 C1.32 0 2.64 0 4 0 C4.625 1.8125 4.625 1.8125 5 4 C4.01 5.485 4.01 5.485 3 7 C0 2.25 0 2.25 0 0 Z " fill="#3D4344" transform="translate(430,66)"/>
<path d="M0 0 C0.66 0.33 1.32 0.66 2 1 C1.67 2.65 1.34 4.3 1 6 C0.01 6.33 -0.98 6.66 -2 7 C-2.125 4.625 -2.125 4.625 -2 2 C-1.34 1.34 -0.68 0.68 0 0 Z " fill="#34393B" transform="translate(349,66)"/>
<path d="M0 0 C0.99 0.66 1.98 1.32 3 2 C1.35 4.31 -0.3 6.62 -2 9 C-2.33 7.68 -2.66 6.36 -3 5 C-2.34 5 -1.68 5 -1 5 C-0.67 3.35 -0.34 1.7 0 0 Z " fill="#5B6872" transform="translate(152,21)"/>
<path d="M0 0 C0.33 0.66 0.66 1.32 1 2 C-0.4375 4.625 -0.4375 4.625 -2 7 C-2.99 6.67 -3.98 6.34 -5 6 C-2.25 1.125 -2.25 1.125 0 0 Z " fill="#3D4142" transform="translate(453,63)"/>
<path d="M0 0 C3 1 3 1 4 3 C4.039992 4.99960012 4.04346799 7.00047242 4 9 C1.3144406 6.3144406 0.93950026 3.62378672 0 0 Z " fill="#3C3E42" transform="translate(248,100)"/>
</svg>
